<svg xmlns="http://www.w3.org/2000/svg" width="24" height="24" viewBox="0 0 24 24" fill="none" stroke="#8C6E57" stroke-width="1.6" stroke-linecap="round" stroke-linejoin="round"><path d="M3.5 15.6c.1-1.1.7-1.85 1.65-2.35 1-.55 1.8-1.2 2.5-2 .85-.95 1.65-1.45 2.85-1.45h1.4c2.05 0 3.25 1.05 3.6 2.95.16.85.2 1.65.22 2.85H3.5Z"></path> <path d="M3.2 15.6h17a.5.5 0 0 1 .5.56l-.13 1.1a.72.72 0 0 1-.72.64H3.55a.72.72 0 0 1-.72-.64L2.7 16.16a.5.5 0 0 1 .5-.56Z"></path> <path d="M8.3 12.7l1.7 2.2M10.5 11.9l1.9 2.5"></path></svg>