<svg xmlns="http://www.w3.org/2000/svg" width="24" height="24" viewBox="0 0 24 24" fill="none" stroke="#8C6E57" stroke-width="1.6" stroke-linecap="round" stroke-linejoin="round"><path d="M2.9 14c1.4.1 2.35-.4 3.15-1.25 1-1.05 2-2.25 3.55-2.75l1.2-.4c.6-.2 1.02.12 1.12.72l.16 1.02c.2 1.3 1.12 2 2.95 2.15 1.6.14 2.95.3 4.05.66 1.3.42 1.95 1.12 2.05 2.2H2.9Z"></path> <path d="M2.7 16.5h17.8a.45.45 0 0 1 .44.52l-.1.74a.85.85 0 0 1-.83.72c-5.25.56-11.34.56-16.6 0a.85.85 0 0 1-.83-.72l-.1-.74a.45.45 0 0 1 .44-.52Z"></path> <path d="M5.7 13.6c2.4-1.25 4.7-1 6.9.75"></path> <path d="M10.6 10.9l.75 2.7M12.7 11.2l.55 2.5"></path></svg>