<svg xmlns="http://www.w3.org/2000/svg" width="24" height="24" viewBox="0 0 24 24" fill="none" stroke="#8C6E57" stroke-width="1.6" stroke-linecap="round" stroke-linejoin="round"><path d="M9.4 4.6 11 7M14.6 4.6 13 7"></path> <path d="M8.5 7.1c1 .5 2.2.78 3.5.78s2.5-.28 3.5-.78c.5 1.35.28 2.5-.5 3.4.42.5.72 1.12.86 1.9l.86 5.6a.55.55 0 0 1-.54.64h-2.1a.55.55 0 0 1-.55-.46L12.9 13.4h-1.8l-.59 5.18a.55.55 0 0 1-.55.46h-2.1a.55.55 0 0 1-.54-.64l.86-5.6c.14-.78.44-1.4.86-1.9-.78-.9-1-2.05-.5-3.4Z"></path> <path d="M8.7 11.2c2.1.66 4.5.66 6.6 0"></path></svg>