<svg xmlns="http://www.w3.org/2000/svg" width="24" height="24" viewBox="0 0 24 24" fill="none" stroke="#8C6E57" stroke-width="1.6" stroke-linecap="round" stroke-linejoin="round"><path d="M4.6 6.6c1.7-.4 3.4-.4 5.2 0 .25 1.7-.6 2.95-2.6 3.15-2-.2-2.85-1.45-2.6-3.15Z"></path> <path d="M19.4 6.6c-1.7-.4-3.4-.4-5.2 0-.25 1.7.6 2.95 2.6 3.15 2-.2 2.85-1.45 2.6-3.15Z"></path> <path d="M9.8 7h4.4"></path> <path d="M4.6 6.6 3.1 5.6M19.4 6.6 20.9 5.6"></path> <path d="M6.8 13.8h10.4l-.5 1.7c-.6 2-2.3 3.2-4.7 3.2s-4.1-1.2-4.7-3.2l-.5-1.7Z"></path> <path d="M6.8 13.8 5.4 12.8M17.2 13.8 18.6 12.8"></path></svg>