<svg xmlns="http://www.w3.org/2000/svg" width="24" height="24" viewBox="0 0 24 24" fill="none" stroke="#8C6E57" stroke-width="1.6" stroke-linecap="round" stroke-linejoin="round"><path d="M9.3 5c.25 1.5 1.25 2.5 2.7 2.5s2.45-1 2.7-2.5"></path> <path d="M9.3 5c-.5 1.5-.35 2.85.3 3.95-.95 1.3-1.5 3.05-1.6 5.05-1.1.85-1.85 2.45-2.15 4.55a.62.62 0 0 0 .62.71h11.06a.62.62 0 0 0 .62-.71c-.3-2.1-1.05-3.7-2.15-4.55-.1-2-.65-3.75-1.6-5.05.65-1.1.8-2.45.3-3.95"></path> <path d="M9.7 14.1c1.5.7 3.1.7 4.6 0"></path></svg>