<svg xmlns="http://www.w3.org/2000/svg" width="24" height="24" viewBox="0 0 24 24" fill="none" stroke="#8C6E57" stroke-width="1.6" stroke-linecap="round" stroke-linejoin="round"><path d="M7.6 5 5.7 6.2a.55.55 0 0 0-.26.52l.66 11.76a.6.6 0 0 0 .6.57h10.6a.6.6 0 0 0 .6-.57l.66-11.76A.55.55 0 0 0 18.3 6.2L16.4 5"></path> <path d="M7.6 5c.95 1.85 2.15 3.05 4.4 3.05S15.45 6.85 16.4 5"></path> <path d="M12 8.05V12M12 14.6v4.45"></path> <path d="M5.8 12.7h12.4"></path> <rect x="10.85" y="11.7" width="2.3" height="2" rx="0.5"></rect></svg>